<?xml version="1.0" standalone="no"?>
<!DOCTYPE svg PUBLIC "-//W3C//DTD SVG 20010904//EN"
 "http://www.w3.org/TR/2001/REC-SVG-20010904/DTD/svg10.dtd">
<svg version="1.0" xmlns="http://www.w3.org/2000/svg"
 width="243.000000pt" height="207.000000pt" viewBox="0 0 243.000000 207.000000"
 preserveAspectRatio="xMidYMid meet">

<g transform="translate(0.000000,207.000000) scale(0.100000,-0.100000)"
fill="#000000" stroke="none">
<path d="M817 1581 c12 -10 19 -22 15 -26 -4 -4 4 -4 17 0 20 6 23 4 18 -9 -4
-9 -2 -16 4 -16 6 0 7 -4 4 -10 -10 -16 23 -70 40 -64 10 4 15 0 15 -11 0 -11
5 -15 14 -12 18 7 28 -17 20 -48 -3 -12 -1 -26 5 -29 6 -4 11 0 11 10 0 10 3
14 8 10 4 -4 7 -17 7 -29 0 -12 5 -22 10 -22 6 0 9 6 9 12 -1 7 2 10 7 7 5 -3
10 -24 10 -47 1 -23 3 -34 6 -24 10 37 33 9 33 -40 0 -14 9 -36 19 -49 l19
-24 6 25 c4 16 11 23 18 19 9 -6 9 -9 0 -12 -7 -2 -12 -13 -12 -25 0 -21 1
-21 13 3 12 23 10 30 -25 83 -22 32 -44 55 -49 51 -6 -3 -9 0 -7 8 2 8 -31 64
-73 124 -42 60 -84 121 -94 137 -14 21 -25 27 -54 27 l-36 -1 22 -18z m102
-102 c-16 -10 -23 -4 -14 10 3 6 11 8 17 5 6 -4 5 -9 -3 -15z"/>
<path d="M1530 1538 c-74 -107 -166 -242 -186 -273 l-18 -30 30 30 c16 17 28
33 26 38 -2 4 2 7 7 7 6 0 11 7 11 15 0 19 23 15 32 -5 5 -11 7 -9 7 7 1 12 6
25 13 29 7 5 8 2 3 -7 -24 -41 26 25 123 164 l61 87 -32 0 c-29 0 -38 -7 -77
-62z"/>
<path d="M935 1410 c3 -5 8 -10 11 -10 2 0 4 5 4 10 0 6 -5 10 -11 10 -5 0 -7
-4 -4 -10z"/>
<path d="M1298 1203 c-23 -28 -30 -43 -19 -43 6 0 11 7 11 15 0 8 5 14 11 13
6 -2 13 5 14 15 2 9 2 17 1 17 -2 0 -10 -8 -18 -17z"/>
<path d="M1180 1131 c5 -11 15 -23 21 -27 6 -3 3 5 -6 20 -20 30 -30 35 -15 7z"/>
<path d="M1140 980 c-11 -21 -5 -44 9 -35 8 4 12 55 5 55 -2 0 -8 -9 -14 -20z"/>
<path d="M1281 954 c2 -46 2 -47 8 -14 5 29 8 31 14 16 4 -10 10 -16 13 -13 4
3 -3 18 -15 33 l-21 27 1 -49z"/>
<path d="M1079 894 c-19 -28 -53 -79 -77 -113 -30 -43 -38 -61 -27 -61 8 0 15
6 15 13 0 8 4 7 10 -3 7 -10 10 -11 11 -2 1 6 3 17 4 22 1 6 3 13 4 18 3 18
57 68 70 64 8 -3 11 0 7 7 -4 6 -2 11 4 11 6 0 8 5 4 12 -4 7 -3 8 5 4 16 -11
24 19 14 51 l-10 28 -34 -51z"/>
<path d="M1344 894 c14 -21 26 -46 26 -56 0 -9 4 -19 9 -22 4 -3 6 -16 4 -30
-3 -13 0 -27 6 -30 7 -5 11 5 11 26 1 31 1 32 15 14 8 -11 15 -16 15 -12 0 11
-87 133 -101 142 -7 4 0 -11 15 -32z"/>
<path d="M1435 759 c4 -6 7 -26 7 -45 0 -29 2 -33 14 -23 8 6 15 9 15 5 1 -3
2 -10 3 -15 0 -5 4 -13 9 -17 18 -18 5 -25 -15 -8 -13 11 -9 2 11 -23 30 -39
38 -45 57 -42 3 1 19 -12 35 -27 16 -15 29 -25 29 -21 0 13 -153 227 -162 227
-5 0 -6 -5 -3 -11z m100 -149 c3 -5 1 -10 -4 -10 -6 0 -11 5 -11 10 0 6 2 10
4 10 3 0 8 -4 11 -10z"/>
<path d="M876 603 c-41 -60 -72 -110 -69 -113 2 -3 10 2 16 10 7 8 21 14 33
12 13 -2 21 3 21 12 0 11 -4 13 -13 5 -22 -18 -26 9 -4 31 11 11 20 24 20 29
0 5 8 8 17 7 10 0 19 8 21 19 2 11 10 27 17 35 12 15 27 60 19 60 -2 0 -37
-48 -78 -107z"/>
<path d="M1612 510 c7 -10 14 -18 15 -16 6 6 -9 36 -18 36 -5 0 -4 -9 3 -20z"/>
<path d="M848 493 c7 -3 16 -2 19 1 4 3 -2 6 -13 5 -11 0 -14 -3 -6 -6z"/>
</g>
</svg>
